<mxfile host="app.diagrams.net" agent="Mozilla/5.0 (Macintosh; Intel Mac OS X 10_15_7) AppleWebKit/537.36 (KHTML, like Gecko) Chrome/126.0.0.0 Safari/537.36" version="24.7.5">
  <diagram name="第 1 页" id="OO63edVG9dswbnCEk5Ap">
    <mxGraphModel dx="853" dy="519" grid="1" gridSize="10" guides="1" tooltips="1" connect="1" arrows="1" fold="1" page="1" pageScale="1" pageWidth="1169" pageHeight="827" math="0" shadow="0">
      <root>
        <mxCell id="0" />
        <mxCell id="1" parent="0" />
        <mxCell id="ZVcZQPWD4RDJLYESJRYW-1" value="" style="rounded=0;whiteSpace=wrap;html=1;" parent="1" vertex="1">
          <mxGeometry x="160" y="130" width="650" height="370" as="geometry" />
        </mxCell>
        <mxCell id="ZVcZQPWD4RDJLYESJRYW-2" value="&lt;font style=&quot;font-size: 16px;&quot;&gt;零信任网络：计算机安全下的概念&lt;br&gt;主要以认证授权为出发点&lt;/font&gt;" style="text;html=1;align=center;verticalAlign=middle;whiteSpace=wrap;rounded=0;" parent="1" vertex="1">
          <mxGeometry x="366.25" y="140" width="257.5" height="40" as="geometry" />
        </mxCell>
        <mxCell id="ZVcZQPWD4RDJLYESJRYW-7" style="edgeStyle=orthogonalEdgeStyle;rounded=0;orthogonalLoop=1;jettySize=auto;html=1;exitX=0.5;exitY=1;exitDx=0;exitDy=0;entryX=0.5;entryY=0;entryDx=0;entryDy=0;" parent="1" source="ZVcZQPWD4RDJLYESJRYW-3" target="ZVcZQPWD4RDJLYESJRYW-6" edge="1">
          <mxGeometry relative="1" as="geometry" />
        </mxCell>
        <mxCell id="ZVcZQPWD4RDJLYESJRYW-3" value="&lt;font style=&quot;font-size: 12px;&quot;&gt;&lt;span style=&quot;caret-color: rgb(32, 33, 36); color: rgb(32, 33, 36); font-family: &amp;quot;JetBrains Mono&amp;quot;, &amp;quot;Fira Code&amp;quot;, &amp;quot;Cascadia Code&amp;quot;, Menlo, &amp;quot;Ubuntu Mono&amp;quot;, Consolas, HYZhengYuan; orphans: 4; text-align: left; white-space-collapse: preserve; background-color: rgb(255, 255, 255);&quot;&gt;软件定义边界&lt;/span&gt;SDP&lt;/font&gt;" style="rounded=0;whiteSpace=wrap;html=1;" parent="1" vertex="1">
          <mxGeometry x="420" y="230" width="120" height="60" as="geometry" />
        </mxCell>
        <mxCell id="ZVcZQPWD4RDJLYESJRYW-11" style="edgeStyle=orthogonalEdgeStyle;rounded=0;orthogonalLoop=1;jettySize=auto;html=1;exitX=0.5;exitY=1;exitDx=0;exitDy=0;" parent="1" source="ZVcZQPWD4RDJLYESJRYW-4" target="ZVcZQPWD4RDJLYESJRYW-10" edge="1">
          <mxGeometry relative="1" as="geometry" />
        </mxCell>
        <mxCell id="ZVcZQPWD4RDJLYESJRYW-12" value="场景: web服务认证授权" style="edgeLabel;html=1;align=center;verticalAlign=middle;resizable=0;points=[];" parent="ZVcZQPWD4RDJLYESJRYW-11" vertex="1" connectable="0">
          <mxGeometry x="-0.1" y="1" relative="1" as="geometry">
            <mxPoint as="offset" />
          </mxGeometry>
        </mxCell>
        <mxCell id="ZVcZQPWD4RDJLYESJRYW-4" value="&lt;span style=&quot;caret-color: rgb(32, 33, 36); color: rgb(32, 33, 36); font-family: &amp;quot;JetBrains Mono&amp;quot;, &amp;quot;Fira Code&amp;quot;, &amp;quot;Cascadia Code&amp;quot;, Menlo, &amp;quot;Ubuntu Mono&amp;quot;, Consolas, HYZhengYuan; orphans: 4; text-align: left; white-space-collapse: preserve; background-color: rgb(255, 255, 255);&quot;&gt;&lt;font style=&quot;font-size: 12px;&quot;&gt;身份识别与访问管理(IAM)&lt;/font&gt;&lt;/span&gt;" style="rounded=0;whiteSpace=wrap;html=1;" parent="1" vertex="1">
          <mxGeometry x="220" y="230" width="120" height="60" as="geometry" />
        </mxCell>
        <mxCell id="ZVcZQPWD4RDJLYESJRYW-8" style="edgeStyle=orthogonalEdgeStyle;rounded=0;orthogonalLoop=1;jettySize=auto;html=1;exitX=0.5;exitY=1;exitDx=0;exitDy=0;" parent="1" source="ZVcZQPWD4RDJLYESJRYW-5" target="ZVcZQPWD4RDJLYESJRYW-6" edge="1">
          <mxGeometry relative="1" as="geometry" />
        </mxCell>
        <mxCell id="ZVcZQPWD4RDJLYESJRYW-9" value="场景: 云开发" style="edgeLabel;html=1;align=center;verticalAlign=middle;resizable=0;points=[];" parent="ZVcZQPWD4RDJLYESJRYW-8" vertex="1" connectable="0">
          <mxGeometry x="0.8037" y="-1" relative="1" as="geometry">
            <mxPoint x="1" y="-9" as="offset" />
          </mxGeometry>
        </mxCell>
        <mxCell id="ZVcZQPWD4RDJLYESJRYW-5" value="&lt;span style=&quot;caret-color: rgb(32, 33, 36); color: rgb(32, 33, 36); font-family: &amp;quot;JetBrains Mono&amp;quot;, &amp;quot;Fira Code&amp;quot;, &amp;quot;Cascadia Code&amp;quot;, Menlo, &amp;quot;Ubuntu Mono&amp;quot;, Consolas, HYZhengYuan; orphans: 4; text-align: left; white-space-collapse: preserve; background-color: rgb(255, 255, 255);&quot;&gt;&lt;font style=&quot;font-size: 12px;&quot;&gt;微隔离(MSG)&lt;/font&gt;&lt;/span&gt;" style="rounded=0;whiteSpace=wrap;html=1;" parent="1" vertex="1">
          <mxGeometry x="623.75" y="230" width="120" height="60" as="geometry" />
        </mxCell>
        <mxCell id="ZVcZQPWD4RDJLYESJRYW-6" value="&lt;div style=&quot;orphans: 4; text-align: left;&quot;&gt;&lt;font face=&quot;JetBrains Mono, Fira Code, Cascadia Code, Menlo, Ubuntu Mono, Consolas, HYZhengYuan&quot; color=&quot;#202124&quot;&gt;&lt;span style=&quot;caret-color: rgb(32, 33, 36); white-space-collapse: preserve; background-color: rgb(255, 255, 255);&quot;&gt;实施：&lt;br/&gt;安全组件: TLS协议&lt;br&gt;远程认证组件: SSH协议&lt;br&gt;认证协议组件: LADP协议、AD协议&lt;br/&gt;...&lt;/span&gt;&lt;/font&gt;&lt;/div&gt;" style="rounded=0;whiteSpace=wrap;html=1;" parent="1" vertex="1">
          <mxGeometry x="460" y="354" width="270" height="106" as="geometry" />
        </mxCell>
        <mxCell id="ZVcZQPWD4RDJLYESJRYW-10" value="&lt;div style=&quot;orphans: 4; text-align: left;&quot;&gt;&lt;font face=&quot;JetBrains Mono, Fira Code, Cascadia Code, Menlo, Ubuntu Mono, Consolas, HYZhengYuan&quot; color=&quot;#202124&quot;&gt;&lt;span style=&quot;caret-color: rgb(32, 33, 36); white-space-collapse: preserve; background-color: rgb(255, 255, 255);&quot;&gt;实施：&lt;br&gt;认证协议: SAML、CAS&lt;br/&gt;认证授权协议: OAuth2.0、OpenID Connect(IODC)&lt;/span&gt;&lt;/font&gt;&lt;/div&gt;" style="rounded=0;whiteSpace=wrap;html=1;spacingLeft=5;" parent="1" vertex="1">
          <mxGeometry x="185" y="330" width="190" height="106" as="geometry" />
        </mxCell>
      </root>
    </mxGraphModel>
  </diagram>
</mxfile>
